<svg xmlns="http://www.w3.org/2000/svg" viewBox="0 0 36 36">
  <path fill="#FFF" d="M32 8H4c-1.1 0-2 .9-2 2v16c0 1.1.9 2 2 2h28c1.1 0 2-.9 2-2V10c0-1.1-.9-2-2-2z"/>
  <path fill="#00C300" d="M32 4H4C1.8 4 0 5.8 0 8v20c0 2.2 1.8 4 4 4h28c2.2 0 4-1.8 4-4V8c0-2.2-1.8-4-4-4zm-1.6 16.4c0 3.8-3.8 6.9-8.6 6.9s-8.6-3.1-8.6-6.9c0-3.4 3-6.2 7.1-6.8.3-.1.7.1.8.4.1.2.1.4.1.5-.1.4-.3.6-.6.5-3.4.5-5.8 2.7-5.8 5.4 0 3 3.1 5.5 7 5.5s7-2.5 7-5.5c0-2.7-2.4-4.9-5.8-5.4-.2 0-.6-.2-.6-.5 0-.2 0-.4.1-.6.1-.3.4-.5.8-.4 4 .6 7.1 3.4 7.1 6.9zm-14.4-1.8h-1.6c-.3 0-.5.2-.5.5s.2.5.5.5h1.6c.3 0 .5-.2.5-.5s-.2-.5-.5-.5zm11.5 0h-7.2c-.3 0-.5.2-.5.5s.2.5.5.5h7.2c.3 0 .5-.2.5-.5s-.2-.5-.5-.5zM10.9 13c-.4 0-.7.1-1 .2-.2.1-.4.4-.3.7s.2.4.6.3c.3-.1.5-.1.8-.1 2.6 0 4.6 1.7 4.6 3.7 0 .4-.1.9-.4 1.4-.1.2-.1.4.1.5.1.1.2.1.3.1s.2 0 .2-.1c.4-.7.6-1.3.6-1.9-.2-2.5-2.7-4.8-5.5-4.8zm8.5 5.2c0 .4-.3.7-.7.7-.4 0-.7-.3-.7-.7s.3-.7.7-.7c.4 0 .7.3.7.7zm2 0c0 .4-.3.7-.7.7-.4 0-.7-.3-.7-.7s.3-.7.7-.7c.4 0 .7.3.7.7zM14 19c0-.4.3-.7.7-.7.4 0 .7.3.7.7 0 .1 0 .2-.1.3-.1.1-.2.2-.3.2-.1.1-.2.1-.3.1-.1 0-.3 0-.4-.1-.2-.1-.3-.2-.3-.5z"/>
</svg>